<svg width="204" height="56" viewBox="0 0 204 56" fill="none" xmlns="http://www.w3.org/2000/svg">
<path d="M75.033 40.4966V13.8966H80.163V36.5066H91.829V40.4966H75.033ZM101.321 40.9526C99.7756 40.9526 98.4456 40.6232 97.331 39.9646C96.2416 39.3059 95.4056 38.3306 94.823 37.0386C94.2656 35.7212 93.987 34.1126 93.987 32.2126V21.6486H99.079V31.7566C99.079 33.3272 99.3956 34.5306 100.029 35.3666C100.662 36.2026 101.676 36.6206 103.069 36.6206C103.93 36.6206 104.69 36.4179 105.349 36.0126C106.033 35.5819 106.565 34.9739 106.945 34.1886C107.35 33.4032 107.553 32.4659 107.553 31.3766V21.6486H112.683V40.4966H108.275L107.857 37.4566H107.705C107.122 38.5459 106.299 39.4072 105.235 40.0406C104.196 40.6486 102.892 40.9526 101.321 40.9526ZM115.96 40.4966V21.6486H120.444L120.9 24.7266H121.014C121.597 23.5612 122.395 22.6872 123.408 22.1046C124.447 21.4966 125.65 21.1926 127.018 21.1926C127.981 21.1926 128.855 21.3192 129.64 21.5726C130.426 21.8259 131.122 22.2186 131.73 22.7506C132.338 23.2826 132.845 23.9919 133.25 24.8786H133.364C134.074 23.7132 134.96 22.8139 136.024 22.1806C137.114 21.5219 138.444 21.1926 140.014 21.1926C141.509 21.1926 142.788 21.5346 143.852 22.2186C144.916 22.8772 145.727 23.8526 146.284 25.1446C146.867 26.4366 147.158 28.0326 147.158 29.9326V40.4966H142.066V30.3886C142.066 28.8179 141.762 27.6146 141.154 26.7786C140.572 25.9426 139.622 25.5246 138.304 25.5246C137.468 25.5246 136.734 25.7146 136.1 26.0946C135.492 26.4492 135.011 26.9939 134.656 27.7286C134.302 28.4632 134.124 29.3626 134.124 30.4266V40.4966H129.032V30.3886C129.032 28.8179 128.728 27.6146 128.12 26.7786C127.512 25.9426 126.55 25.5246 125.232 25.5246C124.472 25.5246 123.776 25.7399 123.142 26.1706C122.509 26.5759 122.002 27.1712 121.622 27.9566C121.268 28.7166 121.09 29.6539 121.09 30.7686V40.4966H115.96ZM156.443 40.9526C154.923 40.9526 153.669 40.6992 152.681 40.1926C151.719 39.6859 151.009 39.0019 150.553 38.1406C150.097 37.2792 149.869 36.3292 149.869 35.2906C149.869 34.1252 150.161 33.0992 150.743 32.2126C151.351 31.3259 152.251 30.6419 153.441 30.1606C154.657 29.6539 156.19 29.4006 158.039 29.4006H162.789C162.789 28.4632 162.65 27.6906 162.371 27.0826C162.118 26.4746 161.713 26.0312 161.155 25.7526C160.623 25.4486 159.939 25.2966 159.103 25.2966C158.141 25.2966 157.305 25.5119 156.595 25.9426C155.886 26.3732 155.455 27.0572 155.303 27.9946H150.325C150.452 26.6012 150.895 25.3979 151.655 24.3846C152.441 23.3712 153.467 22.5859 154.733 22.0286C156.025 21.4712 157.495 21.1926 159.141 21.1926C160.94 21.1926 162.498 21.4966 163.815 22.1046C165.133 22.6872 166.146 23.5612 166.855 24.7266C167.565 25.8666 167.919 27.2599 167.919 28.9066V40.4966H163.663L163.131 37.5706H162.979C162.625 38.1279 162.207 38.6219 161.725 39.0526C161.269 39.4832 160.763 39.8379 160.205 40.1166C159.673 40.3952 159.091 40.5979 158.457 40.7246C157.824 40.8766 157.153 40.9526 156.443 40.9526ZM158.077 37.0006C158.761 37.0006 159.369 36.8866 159.901 36.6586C160.433 36.4052 160.877 36.0759 161.231 35.6706C161.611 35.2652 161.915 34.7966 162.143 34.2646C162.371 33.7072 162.523 33.1372 162.599 32.5546H158.647C157.862 32.5546 157.216 32.6559 156.709 32.8586C156.203 33.0359 155.835 33.3019 155.607 33.6566C155.379 33.9859 155.265 34.3786 155.265 34.8346C155.265 35.2906 155.379 35.6832 155.607 36.0126C155.861 36.3419 156.19 36.5952 156.595 36.7726C157.026 36.9246 157.52 37.0006 158.077 37.0006ZM181.519 40.9526C179.569 40.9526 177.795 40.5599 176.199 39.7746C174.603 38.9892 173.337 37.8112 172.399 36.2406C171.462 34.6699 170.993 32.6686 170.993 30.2366V13.8966H176.123V30.2746C176.123 31.5919 176.339 32.7066 176.769 33.6186C177.2 34.5052 177.833 35.1639 178.669 35.5946C179.505 36.0252 180.493 36.2406 181.633 36.2406C182.799 36.2406 183.787 36.0252 184.597 35.5946C185.408 35.1639 186.029 34.5052 186.459 33.6186C186.915 32.7066 187.143 31.5919 187.143 30.2746V13.8966H192.273V30.2366C192.273 32.6686 191.779 34.6699 190.791 36.2406C189.829 37.8112 188.537 38.9892 186.915 39.7746C185.294 40.5599 183.495 40.9526 181.519 40.9526ZM195.676 40.4966V13.8966H200.806V40.4966H195.676Z" fill="#170F49"/>
<path d="M46.9506 16.7421H38.4127C33.3704 16.7421 21.9975 14.191 25.3589 0.081543C23.26 0.912057 21.4592 2.35425 20.1901 4.22097C18.9211 6.08768 18.2424 8.29274 18.2422 10.55V14.6779C18.2422 15.4003 18.2667 16.1069 18.3158 16.7978C29.0665 17.5172 39.7083 25.1734 40.6852 39.2021C41.2408 39.24 41.797 39.259 42.3537 39.259H46.9506C49.9365 39.259 52.8 38.0729 54.9113 35.9616C57.0226 33.8503 58.2087 30.9868 58.2087 28.0009C58.2087 25.0151 57.0226 22.1516 54.9113 20.0403C52.8 17.929 49.9365 16.7429 46.9506 16.7429V16.7421Z" fill="#9328FF"/>
<path d="M16.6473 16.7422H12.05C9.06421 16.7422 6.20069 17.9283 4.08939 20.0396C1.9781 22.1509 0.791992 25.0144 0.791992 28.0002C0.791992 30.986 1.9781 33.8496 4.08939 35.9609C6.20069 38.0721 9.06421 39.2583 12.05 39.2583H20.5876C25.6294 39.2583 37.0023 41.8093 33.6415 55.9193C35.7402 55.0886 37.5409 53.6463 38.8099 51.7795C40.0788 49.9128 40.7575 47.7078 40.7579 45.4506V41.3221C40.7579 25.1863 28.4687 16.7422 16.6473 16.7422Z" fill="#4A3AFF"/>
</svg>
